<?xml version="1.0" standalone="no"?>
<!DOCTYPE svg PUBLIC "-//W3C//DTD SVG 20010904//EN"
 "http://www.w3.org/TR/2001/REC-SVG-20010904/DTD/svg10.dtd">
<svg version="1.0" xmlns="http://www.w3.org/2000/svg"
 width="500.000000pt" height="500.000000pt" viewBox="0 0 500.000000 500.000000"
 preserveAspectRatio="xMidYMid meet">

<g transform="translate(0.000000,500.000000) scale(0.100000,-0.100000)"
fill="#000000" stroke="none">
<path d="M2285 4869 c-310 -45 -595 -195 -820 -431 -178 -187 -290 -398 -358
-672 -17 -73 -20 -127 -24 -563 l-5 -482 -126 -3 -127 -3 -3 -1288 -2 -1287
1672 2 1673 3 3 1279 c2 1017 0 1281 -10 1288 -7 4 -66 8 -130 8 l-118 0 0
413 c0 407 -6 517 -35 650 -37 164 -118 350 -217 495 -112 164 -338 361 -521
453 -125 64 -303 119 -440 138 -91 13 -325 13 -412 0z m345 -384 c418 -56 742
-342 861 -760 22 -77 23 -97 27 -542 l3 -463 -1026 0 -1026 0 4 473 c4 504 3
488 57 636 131 352 468 617 841 660 109 13 143 12 259 -4z m-195 -2343 c-110
-106 -454 -422 -459 -422 -3 0 -6 104 -6 230 l0 230 252 0 253 0 -40 -38z
m595 -192 c0 -126 -3 -230 -6 -230 -5 0 -349 316 -459 422 l-40 38 253 0 252
0 0 -230z m-272 -17 l256 -238 -257 -3 c-141 -1 -373 -1 -514 0 l-257 3 255
237 c140 130 256 237 257 237 2 1 119 -106 260 -236z m-821 -240 c-2 -2 -92
-2 -200 -1 l-196 3 197 230 197 229 3 -228 c1 -126 1 -231 -1 -233z m1309 250
c97 -115 186 -218 197 -230 l20 -23 -201 0 -202 0 0 230 c0 127 2 230 4 230 2
0 84 -93 182 -207z m-1053 -800 c136 -290 245 -528 244 -530 -3 -2 -639 747
-870 1023 l-28 34 204 0 204 0 246 -527z m573 -33 c-143 -308 -263 -560 -266
-560 -3 0 -123 252 -267 560 l-261 560 528 0 528 0 -262 -560z m672 532 c-569
-675 -872 -1031 -875 -1029 -3 3 62 144 231 502 23 50 91 195 151 323 l109
232 204 0 204 0 -24 -28z"/>
</g>
</svg>
